<svg width="83" height="75" viewBox="0 0 83 75" fill="none" xmlns="http://www.w3.org/2000/svg">
<path d="M79 69C80.1046 69 81 69.8954 81 71C81 72.1046 80.1046 73 79 73H4C2.89543 73 2 72.1046 2 71C2 69.8954 2.89543 69 4 69H79ZM79 35.5C80.1046 35.5 81 36.3954 81 37.5C81 38.6046 80.1046 39.5 79 39.5H4C2.89543 39.5 2 38.6046 2 37.5C2 36.3954 2.89543 35.5 4 35.5H79ZM79 2C80.1046 2 81 2.89543 81 4C81 5.10457 80.1046 6 79 6H4C2.89543 6 2 5.10457 2 4C2 2.89543 2.89543 2 4 2H79Z" fill="#701C24" stroke="#701C24" stroke-width="4" stroke-linecap="round" stroke-linejoin="round"/>
</svg>
