<svg width="563" height="451" viewBox="0 0 563 451" fill="none" xmlns="http://www.w3.org/2000/svg"><path d="M267.998 203.72c-3.561 5.485-5.592 10.049-6.612 12.331-8.702 19.407-19.765 37.793-27.187 57.731-4.541 12.181-52.983 142.215-134.4427 170.49-22.5155 7.817-44.731 6.876-53.1731 6.456-17.6143-.881-36.3589-1.731-43.46062-14.433-4.030988-7.216-4.70115-19.307 1.24031-27.944 1.56038-2.272 4.41108-5.515 11.22271-8.878 14.9537-7.397 30.2075-6.166 33.7083-5.785.2001.02.3501.04.5401.06 15.7039 1.911 25.6363 16.544 30.2475 18.596 14.7036 6.546 86.7815-74.165 143.4055-238.25M284.912 159.971c.1-2.212.18-4.444.25-6.706 1.21-38.364-6.582-64.1563 5.771-93.5923C298.575 41.4766 339.975 0 339.975 0s-21.755 73.8452-16.784 76.7178c5.472 3.1627 43.351-67.48965 43.351-67.48965S351.548 87.0068 358.49 89.9494c6.952 2.9426 35.419-72.554 35.419-72.554s15.973 91.9016-13.294 110.8776c-17.004 11.03-56.093 15.774-64.155 26.013-2.731 3.463-4.602 7.357-4.602 7.357-1.02 2.122-1.75 4.133-2.28 5.925" fill="#701C24"/><path d="M353.649 229.323c10.102-4.785 13.943-17.426 7.842-26.794l-.12-.18c-46.602-71.363-143.356-90.21-213.493-40.446-63.7755 45.25-82.2401 133.418-41.99 200.487 44.271 73.765 140.434 95.374 211.762 48.733 13.533-8.848 25.166-19.517 34.798-31.468 7.952-9.858 5.022-24.541-5.951-30.857l-.2-.11c-10.393 18.146-25.356 34.04-44.591 45.75-57.134 34.781-132.623 19.087-171.162-35.601-42.0204-59.633-25.966-141.725 34.558-181.3 59.235-38.734 138.634-22.08 177.344 37.193 3.341 5.114 6.231 10.379 8.752 15.744.73-.341 1.56-.731 2.441-1.151h.01Z" fill="#1A1A1A" stroke="#000" stroke-width=".75" stroke-miterlimit="10"/><path d="M280.551 354.303c-38.33 25.062-89.702 14.293-114.749-24.061-25.046-38.354-14.283-89.76 24.046-114.822 38.33-25.062 89.702-14.292 114.749 24.062 2.16 3.302 4.031 6.715 5.671 10.189 13.643-6.396 27.297-12.802 40.94-19.197-2.521-5.375-5.421-10.64-8.752-15.744-38.71-59.273-118.109-75.927-177.344-37.193-59.234 38.734-75.8783 118.184-37.169 177.457 38.71 59.272 118.109 75.927 177.344 37.192 17.514-11.46 31.277-26.493 41.02-43.488-13.073-7.507-26.147-15.013-39.22-22.53-6.301 11-15.204 20.728-26.536 28.135Z" fill="#1A1A1A" stroke="#000" stroke-width=".75" stroke-miterlimit="10"/><path d="M189.848 215.41c-38.329 25.062-49.092 76.468-24.045 114.822 25.046 38.354 76.418 49.123 114.748 24.061 11.332-7.407 20.235-17.135 26.536-28.135-10.902-6.265-21.805-12.521-32.708-18.787-3.441 5.996-8.262 11.32-14.443 15.354-20.905 13.672-48.932 7.797-62.596-13.122-13.663-20.918-7.792-48.963 13.113-62.635 20.906-13.672 48.932-7.797 62.596 13.122 1.18 1.811 2.16 3.683 3.051 5.585 11.382-5.345 22.775-10.68 34.158-16.014-1.63-3.474-3.511-6.887-5.671-10.189-25.047-38.354-76.419-49.124-114.749-24.062h.01Z" fill="#1A1A1A" stroke="#000" stroke-width=".75" stroke-miterlimit="10"/><path d="M255.805 316.42c-17.425 11.39-40.78 6.495-52.163-10.94-11.383-17.436-6.492-40.806 10.933-52.196 17.424-11.39 40.78-6.496 52.162 10.939.981 1.512 1.801 3.073 2.551 4.655 2.271-1.071 4.541-2.132 6.822-3.193-.891-1.902-1.871-3.774-3.051-5.585-13.663-20.919-41.68-26.794-62.595-13.122-20.906 13.672-26.777 41.707-13.114 62.636 13.664 20.918 41.681 26.793 62.596 13.121 6.181-4.043 11.012-9.358 14.443-15.353-2.18-1.252-4.351-2.503-6.531-3.754-2.861 4.995-6.892 9.429-12.033 12.792h-.02Z" fill="#701C24" stroke="#000" stroke-width=".75" stroke-miterlimit="10"/><path d="M214.585 253.294c-17.425 11.39-22.316 34.76-10.933 52.196 11.383 17.435 34.738 22.33 52.163 10.94 5.151-3.363 9.172-7.797 12.033-12.792-4.351-2.502-8.712-5.004-13.064-7.506-1.72 2.992-4.131 5.655-7.221 7.676-10.453 6.836-24.466 3.894-31.298-6.565-6.832-10.46-3.891-24.482 6.562-31.318 10.452-6.836 24.466-3.894 31.297 6.566.59.9 1.081 1.841 1.531 2.792 4.541-2.132 9.092-4.264 13.633-6.395-.74-1.582-1.56-3.143-2.551-4.655-11.382-17.435-34.738-22.329-52.162-10.939h.01Z" fill="#701C24" stroke="#000" stroke-width=".75" stroke-miterlimit="10"/><path d="M237.91 288.084c-4.881 3.193-9.822-4.393-4.951-7.576 2.811-1.842 5.631-.1 6.592 2.312 5.371-2.522 10.732-5.035 16.104-7.547-.451-.951-.941-1.892-1.531-2.792-6.831-10.46-20.845-13.402-31.297-6.566-10.453 6.836-13.394 20.858-6.562 31.318 6.832 10.459 20.845 13.401 31.298 6.565 3.09-2.021 5.501-4.674 7.221-7.676-5.261-3.023-10.512-6.046-15.774-9.058-.29.37-.64.72-1.11 1.02h.01Z" fill="#701C24" stroke="#000" stroke-width=".75" stroke-miterlimit="10"/><path d="M232.959 280.508c-4.871 3.183.07 10.769 4.951 7.576.46-.3.81-.65 1.11-1.02-1.27-.731-2.55-1.462-3.82-2.192 1.45-.681 2.91-1.362 4.361-2.042-.961-2.412-3.781-4.154-6.592-2.312l-.01-.01Z" fill="#000"/><path d="M239.011 287.064c1.02-1.282 1.09-2.863.54-4.244-1.451.68-2.911 1.361-4.361 2.042 1.27.73 2.55 1.461 3.821 2.192v.01ZM308.768 261.971v12.471c-.941-.32-1.671-.48-2.181-.48-.98 0-1.83.36-2.531 1.091-.7.731-1.06 1.601-1.06 2.632 0 .881.38 1.992 1.15 3.333l.991 1.732c1.79 3.122 2.69 6.135 2.69 9.038 0 4.253-1.51 7.857-4.531 10.809-3.021 2.953-6.711 4.424-11.072 4.424-2.091 0-4.172-.48-6.212-1.441v-12.671c1.24.79 2.341 1.191 3.301 1.191 1.13 0 2.08-.331 2.83-.981.761-.651 1.141-1.471 1.141-2.452 0-.641-.61-2.042-1.831-4.204-1.94-3.423-2.92-6.836-2.92-10.259 0-4.124 1.47-7.677 4.411-10.659 2.94-2.983 6.441-4.474 10.522-4.474 1.791 0 3.561.3 5.292.9h.01ZM314.469 274.412h11.983v18.056c0 1.822.76 2.723 2.281 2.723 1.52 0 2.24-.911 2.24-2.723v-18.056h11.983v17.826c0 4.144-1.38 7.647-4.131 10.499-2.761 2.853-6.132 4.284-10.123 4.284-4.551 0-8.212-1.651-10.992-4.974-2.161-2.583-3.241-6.176-3.241-10.77v-16.865ZM378.435 305.94h-11.983v-18.056c0-1.841-.76-2.752-2.271-2.752-1.51 0-2.24.921-2.24 2.752v18.056h-11.983v-17.826c0-4.173 1.38-7.676 4.131-10.529 2.75-2.852 6.131-4.284 10.122-4.284 4.571 0 8.232 1.662 10.993 4.975 2.16 2.582 3.241 6.185 3.241 10.809v16.865l-.01-.01ZM405.091 262.161h11.983v26.644c0 4.894-1.28 8.878-3.841 11.961-1.47 1.771-3.351 3.182-5.621 4.233-2.281 1.051-4.611 1.572-7.002 1.572-4.761 0-8.782-1.602-12.053-4.815-3.271-3.212-4.901-7.136-4.901-11.8 0-4.664 1.62-8.407 4.871-11.7 3.251-3.293 7.092-4.935 11.533-4.935.71 0 1.77.06 3.201.191v13.211c-.981-.77-1.961-1.151-2.951-1.151-1.24 0-2.301.451-3.191 1.361-.89.911-1.33 2.002-1.33 3.283 0 1.281.46 2.302 1.38 3.193.92.891 2.021 1.331 3.301 1.331 3.081 0 4.611-2.122 4.611-6.375v-26.193l.01-.011ZM444.831 261.971v12.471c-.94-.32-1.67-.48-2.181-.48-.98 0-1.83.36-2.53 1.091-.7.731-1.06 1.601-1.06 2.632 0 .881.38 1.992 1.15 3.333l.99 1.732c1.791 3.122 2.691 6.135 2.691 9.038 0 4.253-1.511 7.857-4.531 10.809-3.021 2.953-6.712 4.424-11.073 4.424-2.091 0-4.171-.48-6.212-1.441v-12.671c1.241.79 2.341 1.191 3.301 1.191 1.131 0 2.081-.331 2.841-.981.76-.651 1.14-1.471 1.14-2.452 0-.641-.61-2.042-1.83-4.204-1.941-3.423-2.921-6.836-2.921-10.259 0-4.124 1.47-7.677 4.411-10.659 2.941-2.983 6.442-4.474 10.523-4.474 1.79 0 3.561.3 5.291.9ZM461.815 317.771h-11.983v-26.674c0-4.894 1.281-8.878 3.841-11.96 1.471-1.772 3.351-3.183 5.622-4.234 2.27-1.051 4.611-1.572 7.001-1.572 4.762 0 8.782 1.602 12.053 4.815 3.271 3.202 4.901 7.136 4.901 11.8 0 4.664-1.62 8.448-4.871 11.74-3.251 3.293-7.091 4.935-11.533 4.935-.73 0-1.79-.08-3.2-.22v-13.212c.98.791 1.96 1.191 2.95 1.191 1.241 0 2.301-.46 3.191-1.381.88-.921 1.33-2.012 1.33-3.273 0-1.261-.46-2.332-1.38-3.223-.92-.891-2.02-1.331-3.301-1.331-3.08 0-4.611 2.132-4.611 6.386v26.233l-.01-.02ZM500.495 273.962v31.968h-11.983v-31.968h11.983Zm-5.962-14.263c1.621 0 3.031.571 4.211 1.712 1.181 1.141 1.781 2.492 1.781 4.053 0 1.672-.56 3.033-1.681 4.104-1.12 1.071-2.56 1.601-4.311 1.601-1.75 0-3.191-.53-4.311-1.601s-1.68-2.442-1.68-4.104c0-1.561.59-2.912 1.78-4.053s2.591-1.712 4.211-1.712ZM527.571 274.412v12.631c-1.69 0-2.85.321-3.481.951-.63.631-1.03 1.872-1.2 3.734-.56 6.175-2.951 10.539-7.182 13.081-2.24 1.321-5.421 1.992-9.552 1.992h-1.67V294.1h.54c1.92 0 3.291-.401 4.121-1.201.83-.801 1.3-2.212 1.43-4.214.17-3.273.47-5.565.91-6.896.44-1.321 1.331-2.643 2.671-3.944 2.351-2.292 5.611-3.433 9.772-3.433h3.641ZM562.88 291.888h-18.175c-.28-.921-.42-1.762-.42-2.532 0-1.071.19-2.112.58-3.143h6.092c-.43-2.372-1.76-3.563-4.011-3.563-1.49 0-2.711.64-3.651 1.911s-1.41 2.903-1.41 4.895c0 1.991.45 3.753 1.36 5.034.91 1.281 2.101 1.922 3.571 1.922 1.2 0 2.351-.601 3.461-1.792l6.821 8.207c-3.18 2.503-6.721 3.754-10.602 3.754-4.741 0-8.732-1.592-11.953-4.774-3.221-3.183-4.841-7.127-4.841-11.831s1.63-8.638 4.891-11.86c3.261-3.233 7.262-4.845 12.003-4.845 4.741 0 8.532 1.582 11.683 4.735 3.151 3.152 4.721 7.036 4.721 11.66 0 .47-.04 1.221-.13 2.242l.01-.02Z" fill="#000"/><path d="M265.337 305.89c-.57.781-1.14 1.572-1.71 2.352-.07.1-.15.2-.22.301.12-.161-.04.05-.091.11-.14.17-.28.34-.43.51-.3.33-.61.631-.94.921-.16.13-.31.27-.48.39.12-.09.07-.05-.02.01-.09.06-.19.13-.28.2-.36.251-.73.491-1.1.711-.75.45-1.521.871-2.301 1.281-.69.371-.97 1.391-.54 2.052.45.701 1.31.931 2.051.54 1.68-.9 3.34-1.821 4.781-3.072 1.55-1.341 2.67-3.143 3.871-4.784.46-.641.13-1.702-.541-2.052-.78-.411-1.56-.14-2.05.54v-.01Z" fill="#701C24"/><path d="M266.387 307.552c1.931 0 1.931-3.003 0-3.003-1.93 0-1.93 3.003 0 3.003ZM258.225 314.358c-2.32.4-4.541 1.321-6.731 2.132-1.061.39-2.121.78-3.201 1.131-1.151.37-2.411.56-3.481 1.121-1.711.9-.19 3.493 1.51 2.592.41-.22.92-.29 1.371-.411.55-.15 1.09-.31 1.62-.49 1.08-.35 2.141-.741 3.191-1.141 2.12-.791 4.271-1.661 6.511-2.052.801-.14 1.251-1.121 1.051-1.851-.23-.841-1.041-1.191-1.851-1.051l.01.02Z" fill="#701C24"/><path d="M244.652 320.433c-2.791.751-5.712-.18-8.492-.58-.72-.101-1.461-.201-2.191-.161-.73.04-1.45.241-2.19.341-.74.1-1.441.1-2.151.1-.57 0-1.25.07-1.78-.17-.74-.331-1.611-.221-2.051.54-.37.641-.21 1.732.54 2.052 1.491.65 3.051.63 4.652.54 1.6-.09 3.09-.55 4.711-.31 3.26.481 6.491 1.421 9.762.541 1.861-.501 1.07-3.403-.8-2.893h-.01Z" fill="#701C24"/><path d="M225.307 319.002c-9.432-1.381-16.444-8.348-21.275-16.145-2.441-3.943-5.352-8.457-5.412-13.231-.03-2.362.281-4.754.541-7.106.26-2.353.63-4.875 1.27-7.237.68-2.512 1.69-4.884 3.191-7.016 1.63-2.312 3.741-4.264 5.791-6.196 1.01-.95.17-2.472-1.06-2.562-.7-.05-1.4-.1-2.101-.16l1.301 2.262c.98-1.932 2.9-3.293 4.541-4.664 1.64-1.371 3.481-2.752 5.471-3.723 1.991-.971 4.241-1.191 6.422-1.732 2.18-.54 4.261-1.842 6.611-2.072 2.351-.23 4.751.06 7.062.351 2.451.3 4.881.76 7.282 1.321 4.351 1.031 9.082 2.262 12.883 4.724 3.801 2.462 5.381 7.146 9.202 9.648 1.621 1.061 3.131-1.541 1.511-2.592-1.791-1.171-2.971-2.982-4.211-4.674-1.241-1.691-2.581-3.263-4.301-4.504-3.901-2.812-8.993-4.204-13.604-5.335-2.58-.64-5.201-1.121-7.832-1.471-2.49-.33-5.051-.661-7.562-.51-2.51.15-4.591 1.201-6.971 1.971-2.381.771-4.781.881-7.072 1.862-2.401 1.031-4.511 2.562-6.532 4.204-2.02 1.641-4.311 3.323-5.501 5.675-.54 1.061.13 2.172 1.3 2.262.701.05 1.401.1 2.101.16l-1.06-2.562c-3.871 3.653-7.332 7.396-9.133 12.501-1.8 5.104-2.19 10.249-2.5 15.353-.16 2.713.13 5.305 1.15 7.827.97 2.382 2.221 4.674 3.511 6.896 2.541 4.404 5.571 8.648 9.382 12.051 4.161 3.713 9.222 6.506 14.784 7.316 1.89.281 2.7-2.612.8-2.892h.02Z" fill="#701C24"/><path d="M267.407 267.216h.32c-.43-.741-.86-1.491-1.3-2.242 0 .01-.01.02-.02.04l-.15.36v.04c-.01.07-.02.14-.03.211 0 .07-.02.14-.03.21v.05c0 .07.02.14.03.21 0 .07.02.14.03.21v.03c.04.15.1.29.18.43.16.281.37.471.63.641.13.08.28.14.42.18.14.04.31.07.471.06l.4-.05.36-.15.3-.23c.15-.14.25-.3.31-.481.07-.12.1-.24.1-.38.04-.13.04-.27 0-.4 0-.14-.03-.26-.1-.381-.06-.19-.16-.35-.31-.48-.27-.29-.69-.45-1.08-.45-.271 0-.541.07-.781.21-.11.07-.23.15-.31.24l-.23.3v.01l-.15.361v.01l-.05.4v.01c0 .23.08.56.21.761.03.06.07.11.12.16.04.05.08.11.12.16.05.05.1.09.16.12.05.04.1.08.16.12.11.07.24.12.37.16.13.04.27.05.411.06h.01l.4-.05c.14-.03.28-.1.4-.17.17-.09.32-.22.42-.39.13-.14.22-.31.27-.511.06-.2.07-.4.03-.6 0-.2-.07-.391-.18-.561l-.23-.3c-.19-.19-.41-.31-.66-.39l-.4-.05c-.271 0-.521.07-.761.2h-.01l.36-.15h-.03l.401-.05h-.02l.4.05h-.01l.36.15h-.01l.3.23v-.01l.23.3c.05.11.1.231.15.351.02.13.04.26.05.39v-.01l-.05.4v-.01l-.15.361v-.01l-.23.3-.3.23-.36.15c-.13.02-.27.03-.4.05l-.401-.05-.36-.15c-.1-.08-.2-.15-.3-.23.35-.851.71-1.702 1.061-2.562h-.041l.401.05s-.04 0-.06-.02l.36.15s-.04-.02-.05-.03l.3.23s-.04-.03-.05-.05l.23.3s-.03-.05-.04-.07l.15.36s-.02-.05-.02-.08l.05.401v-.07l-.05.4s0-.04.01-.05l-.15.36s.01-.03.02-.04c.14-.23.2-.49.2-.76 0-.271-.07-.521-.2-.761-.13-.23-.31-.4-.54-.541-.23-.14-.49-.2-.761-.2h-.32c-.21-.02-.4.02-.58.12-.19.06-.35.16-.48.311-.15.14-.25.3-.31.48-.09.18-.14.37-.13.581l.05.4c.07.25.2.47.39.66l.3.231c.23.14.49.2.76.2l.02.02Z" fill="#701C24"/><path d="M232.419 323.386c1.56-.11 3.111-.151 4.671-.11.64.01.64-.991 0-1.001-1.56-.03-3.121 0-4.671.11-.27.02-.5.22-.5.5 0 .26.23.521.5.501Z" fill="#000"/><path d="M229.998 322.675c2.351.32 4.711.49 7.082.48l-.13-.981c-.25.04-.5.05-.76.04-.64-.02-.64.981 0 1.001.35.01.68-.02 1.02-.07.57-.09.42-.981-.13-.981-2.281 0-4.561-.14-6.812-.45-.27-.04-.53.07-.62.35-.07.231.08.581.35.621v-.01Z" fill="#000"/><path d="M267.167 305.019c.64 0 .64-1 0-1s-.64 1 0 1Z" fill="#701C24"/><path d="M267.357 305.139c.64 0 .64-1 0-1s-.64 1 0 1Z" fill="#701C24"/><path d="M267.187 304.748c.64 0 .64-1 0-1s-.64 1 0 1Z" fill="#701C24"/><path d="M267.567 304.958c.64 0 .64-1 0-1s-.64 1 0 1Z" fill="#701C24"/><path d="M267.407 304.878c.64 0 .64-1 0-1s-.64 1 0 1Z" fill="#701C24"/><path d="M267.357 304.828c.64 0 .64-1 0-1s-.64 1 0 1Z" fill="#701C24"/><path d="M267.687 305.029c.64 0 .64-1 0-1s-.64 1 0 1ZM227.718 322.355c2.84.35 5.681.7 8.522 1.061v-1.001c-1.831.07-3.861.39-5.612-.28l-.13.98c1.161.02 2.301.181 3.421.481l.13-.981c-1.63.04-3.241-.22-4.841-.45-1.6-.231-3.111-.451-4.661-.681l-.13.981c4.211-.421 8.462-.34 12.653.26l.13-.981c-4.291.02-8.592.05-12.883.07v1.001c2.601-.03 5.201-.05 7.802-.04 1.28 0 2.56.02 3.841.04 1.28.02 2.49.07 3.681.471l.13-.981c-1.781.01-3.561.03-5.332.04v1.001c1.681-.211 3.371-.281 5.072-.211l-.13-.98c-1.251.24-2.491.54-3.721.89-.57.17-.41.921.13.981.85.09 1.7.1 2.56.02v-1.001c-.86.09-1.72.08-2.58 0-.64-.07-.63.931 0 1.001.86.09 1.72.09 2.58 0 .63-.06.64-1.061 0-1.001-.86.08-1.7.07-2.56-.02l.13.981c1.23-.35 2.47-.65 3.721-.891.57-.11.41-.96-.13-.98-1.691-.071-3.391 0-5.072.21-.62.08-.66 1.001 0 1.001 1.781-.01 3.561-.03 5.332-.04.58 0 .66-.811.13-.981-1.131-.381-2.311-.471-3.491-.501-1.35-.04-2.701-.04-4.051-.05-2.681-.01-5.371 0-8.052.04-.64 0-.64 1.001 0 1.001 4.291-.02 8.592-.05 12.883-.07.54 0 .71-.901.13-.981-4.281-.62-8.612-.73-12.923-.3-.51.05-.74.891-.13.981 1.63.24 3.271.48 4.901.72 1.63.241 3.231.501 4.871.451.55-.01.69-.831.13-.981-1.21-.32-2.44-.49-3.691-.511-.6-.01-.63.791-.13.981 1.841.701 3.961.391 5.882.311.66-.02.62-.921 0-1.001-2.841-.351-5.682-.711-8.522-1.061-.64-.08-.63.921 0 1.001h.01ZM203.172 262.622c-.35.17-.42.63-.16.921.38.43.9.08 1.29-.14 1.23-.711 2.431-1.472 3.601-2.272l-.61-.791c-1.381 1.321-2.731 2.672-4.041 4.053-.45.471.23 1.141.71.711.87-.801 1.75-1.601 2.52-2.512.361-.431.711-.881 1.011-1.351.23-.361.5-.831.24-1.251-.45-.741-1.601-.271-2.141.09-.78.52-1.33 1.321-2.16 1.781l.61.791c.62-.701 1.16-1.451 1.62-2.272.27-.47-.42-1.061-.79-.611-1.23 1.552-2.32 3.193-3.241 4.945-.27.51.36.991.79.61 1.411-1.251 2.741-2.592 3.981-4.023l-.79-.611c-1.44 1.902-2.79 3.864-4.051 5.885-.19.301.05.781.43.751 1.151-.09 2.081-.761 3.021-1.371 1.08-.701 2.131-1.431 3.161-2.182 2.09-1.511 4.141-3.063 6.211-4.594l-.61-.791c-1.61 2.082-3.231 4.164-4.841 6.246-.39.5.21 1.151.71.71 1.081-.961 2.051-2.031 2.911-3.192.29-.391-.19-.791-.56-.731-2.281.36-4.631.861-6.952.891-.62 0-1.13-.1-.91-.881.13-.471.43-.921.7-1.321.58-.861 1.32-1.602 2.161-2.202l-.681-.681c-1.01 1.572-2.06 3.183-3.7 4.144l.61.791c1.38-1.402 2.85-2.703 4.401-3.904.51-.39-.2-1.101-.71-.711-1.551 1.202-3.021 2.513-4.401 3.904-.401.4.11 1.081.61.791 1.79-1.061 2.96-2.793 4.061-4.504.26-.411-.27-.981-.681-.681-1.04.741-1.94 1.641-2.63 2.722-.58.911-1.31 2.382-.23 3.223.46.361 1.09.331 1.64.311.73-.021 1.461-.111 2.181-.211 1.6-.21 3.201-.46 4.801-.71l-.56-.731c-.81 1.091-1.741 2.082-2.751 2.983l.71.71c1.611-2.082 3.231-4.163 4.841-6.245.311-.401-.1-1.161-.61-.791-1.94 1.441-3.881 2.903-5.831 4.324-.94.691-1.891 1.361-2.861 2.012-.97.65-2.05 1.581-3.201 1.681l.43.751c1.261-2.022 2.611-3.984 4.051-5.885.341-.451-.41-1.031-.79-.611-1.24 1.421-2.57 2.763-3.981 4.024l.791.61c.88-1.671 1.91-3.263 3.09-4.744l-.79-.611c-.42.741-.9 1.432-1.47 2.072-.37.421.09 1.071.61.791.56-.31 1.01-.761 1.47-1.201.24-.22.47-.45.75-.631.13-.09.27-.16.421-.22.1-.04.21-.06.32-.08-.06-.17-.11-.18-.16-.05-.13.07-.251.4-.341.521-.13.19-.28.38-.42.56-.26.32-.54.631-.83.941-.6.63-1.25 1.221-1.89 1.811l.71.711c1.32-1.381 2.661-2.742 4.041-4.053.4-.381-.13-1.111-.61-.791-.68.46-1.371.911-2.071 1.351-.32.2-.64.39-.96.581-.23.14-.74.56-.97.55l.43.25.03.1-.25.431.06-.03c.58-.291.07-1.151-.5-.861ZM239.231 246.968c1.17-.4 2.23-.24 3.38.13 1.151.371 2.211.721 3.321 1.081v-.961c-1.17.171-2.34.291-3.521.361-.55.03-1.09.06-1.64.07-.29 0-.58.01-.87.01-.19 0-.54.08-.68-.09l-.22.84c.94-.4 2.08-.29 3.08-.25 1.101.05 2.191.16 3.271.351l.13-.981c-3.121.07-6.231-.1-9.322-.501l.25.931c1.11-.631 2.541-.611 3.791-.601 1.36.011 2.71.181 4.041.481v-.961c-2.051.521-4.141.691-6.252.531v1c1.921-.19 3.841.02 5.752.231v-1.001c-1.021.06-2.031.23-3.021.5-.31.09-.46.451-.3.731.22.39.54.55.96.61.64.08.63-.92 0-1.001l-.1-.11-.3.731c.9-.25 1.82-.41 2.751-.47.65-.04.63-.931 0-1.001-1.911-.22-3.831-.421-5.752-.23-.64.06-.65.95 0 1 2.191.171 4.381-.03 6.512-.57.47-.12.48-.851 0-.961-1.47-.34-2.981-.52-4.491-.52-1.371 0-2.871.04-4.101.73-.47.27-.2.871.25.931 3.091.4 6.211.571 9.322.501.54-.011.71-.881.13-.981-1.17-.201-2.35-.341-3.531-.391-1.09-.05-2.32-.15-3.351.281-.37.15-.47.52-.22.84.33.421.901.391 1.391.391.71 0 1.42-.02 2.12-.06 1.401-.07 2.791-.221 4.171-.421.53-.08.42-.831 0-.961-1.23-.4-2.45-.82-3.681-1.191-1.23-.37-2.37-.42-3.55-.01-.611.21-.351 1.171.27.961h.01ZM268.288 268.026c.64 0 .64-1 0-1s-.64 1 0 1Z" fill="#701C24"/><path d="M268.658 267.996c.64 0 .64-1 0-1s-.64 1 0 1Z" fill="#701C24"/><path d="M268.518 268.246c.64 0 .64-1 0-1s-.64 1 0 1Z" fill="#701C24"/><path d="M268.808 268.226c.64 0 .64-1 0-1s-.64 1 0 1Z" fill="#701C24"/><path d="M268.558 268.436c.64 0 .64-1 0-1s-.64 1 0 1Z" fill="#701C24"/><path d="M268.958 268.326c.64 0 .64-1 0-1s-.64 1 0 1Z" fill="#701C24"/><path d="M268.688 268.686c.64 0 .64-1 0-1s-.64 1 0 1Z" fill="#701C24"/><path d="M269.068 268.506c.64 0 .64-1 0-1s-.64 1 0 1Z" fill="#701C24"/><path d="M268.888 268.586c.64 0 .64-1 0-1s-.64 1 0 1Z" fill="#701C24"/><path d="M268.658 268.716c.64 0 .64-1 0-1s-.64 1 0 1Z" fill="#701C24"/><path d="M269.208 268.446c.64 0 .64-1 0-1s-.64 1 0 1Z" fill="#701C24"/></svg>